<svg width="60" height="47" viewBox="0 0 60 47" fill="none" xmlns="http://www.w3.org/2000/svg">
<path d="M19.85 9.42857C21.4495 9.42857 22.75 8.0192 22.75 6.28571C22.75 4.55223 21.4495 3.14286 19.85 3.14286C18.2505 3.14286 16.95 4.55223 16.95 6.28571C16.95 8.0192 18.2505 9.42857 19.85 9.42857ZM40.15 9.42857C41.7495 9.42857 43.05 8.0192 43.05 6.28571C43.05 4.55223 41.7495 3.14286 40.15 3.14286C38.5505 3.14286 37.25 4.55223 37.25 6.28571C37.25 8.0192 38.5505 9.42857 40.15 9.42857ZM41.6 11H38.7C37.9025 11 37.182 11.3487 36.6564 11.9134C38.4825 12.9987 39.7784 14.958 40.0594 17.2857H43.05C43.852 17.2857 44.5 16.5835 44.5 15.7143V14.1429C44.5 12.4094 43.1995 11 41.6 11ZM30 11C32.8048 11 35.075 8.53973 35.075 5.5C35.075 2.46027 32.8048 0 30 0C27.1952 0 24.925 2.46027 24.925 5.5C24.925 8.53973 27.1952 11 30 11ZM33.48 12.5714H33.1039C32.1614 13.0625 31.1147 13.3571 30 13.3571C28.8853 13.3571 27.8431 13.0625 26.8961 12.5714H26.52C23.6381 12.5714 21.3 15.1054 21.3 18.2286V19.6429C21.3 20.9442 22.2742 22 23.475 22H36.525C37.7258 22 38.7 20.9442 38.7 19.6429V18.2286C38.7 15.1054 36.3619 12.5714 33.48 12.5714ZM23.3436 11.9134C22.818 11.3487 22.0975 11 21.3 11H18.4C16.8005 11 15.5 12.4094 15.5 14.1429V15.7143C15.5 16.5835 16.148 17.2857 16.95 17.2857H19.9361C20.2216 14.958 21.5175 12.9987 23.3436 11.9134Z" fill="#D2D2D2"/>
<path d="M7.71888 38.112H9.55888V39H6.59888V33.416H7.71888V38.112ZM10.8388 34.04C10.6414 34.04 10.4761 33.9787 10.3428 33.856C10.2148 33.728 10.1508 33.5707 10.1508 33.384C10.1508 33.1973 10.2148 33.0427 10.3428 32.92C10.4761 32.792 10.6414 32.728 10.8388 32.728C11.0361 32.728 11.1988 32.792 11.3268 32.92C11.4601 33.0427 11.5268 33.1973 11.5268 33.384C11.5268 33.5707 11.4601 33.728 11.3268 33.856C11.1988 33.9787 11.0361 34.04 10.8388 34.04ZM11.3908 34.568V39H10.2708V34.568H11.3908ZM15.1213 39L13.6173 37.112V39H12.4973V33.08H13.6173V36.448L15.1053 34.568H16.5613L14.6093 36.792L16.5773 39H15.1213ZM21.2892 36.688C21.2892 36.848 21.2785 36.992 21.2572 37.12H18.0172C18.0439 37.44 18.1559 37.6907 18.3532 37.872C18.5505 38.0533 18.7932 38.144 19.0812 38.144C19.4972 38.144 19.7932 37.9653 19.9692 37.608H21.1772C21.0492 38.0347 20.8039 38.3867 20.4412 38.664C20.0785 38.936 19.6332 39.072 19.1052 39.072C18.6785 39.072 18.2945 38.9787 17.9532 38.792C17.6172 38.6 17.3532 38.3307 17.1612 37.984C16.9745 37.6373 16.8812 37.2373 16.8812 36.784C16.8812 36.3253 16.9745 35.9227 17.1612 35.576C17.3479 35.2293 17.6092 34.9627 17.9452 34.776C18.2812 34.5893 18.6679 34.496 19.1052 34.496C19.5265 34.496 19.9025 34.5867 20.2332 34.768C20.5692 34.9493 20.8279 35.208 21.0092 35.544C21.1959 35.8747 21.2892 36.256 21.2892 36.688ZM20.1292 36.368C20.1239 36.08 20.0199 35.8507 19.8172 35.68C19.6145 35.504 19.3665 35.416 19.0732 35.416C18.7959 35.416 18.5612 35.5013 18.3692 35.672C18.1825 35.8373 18.0679 36.0693 18.0252 36.368H20.1292ZM30.1009 33.416V39H28.9809V35.368L27.4849 39H26.6369L25.1329 35.368V39H24.0129V33.416H25.2849L27.0609 37.568L28.8369 33.416H30.1009ZM31.7763 34.04C31.5789 34.04 31.4136 33.9787 31.2803 33.856C31.1523 33.728 31.0883 33.5707 31.0883 33.384C31.0883 33.1973 31.1523 33.0427 31.2803 32.92C31.4136 32.792 31.5789 32.728 31.7763 32.728C31.9736 32.728 32.1363 32.792 32.2643 32.92C32.3976 33.0427 32.4643 33.1973 32.4643 33.384C32.4643 33.5707 32.3976 33.728 32.2643 33.856C32.1363 33.9787 31.9736 34.04 31.7763 34.04ZM32.3283 34.568V39H31.2083V34.568H32.3283ZM35.8908 34.504C36.4188 34.504 36.8455 34.672 37.1708 35.008C37.4961 35.3387 37.6588 35.8027 37.6588 36.4V39H36.5388V36.552C36.5388 36.2 36.4508 35.9307 36.2748 35.744C36.0988 35.552 35.8588 35.456 35.5548 35.456C35.2455 35.456 35.0001 35.552 34.8188 35.744C34.6428 35.9307 34.5548 36.2 34.5548 36.552V39H33.4348V34.568H34.5548V35.12C34.7041 34.928 34.8935 34.7787 35.1228 34.672C35.3575 34.56 35.6135 34.504 35.8908 34.504ZM38.4359 36.768C38.4359 36.32 38.5239 35.9227 38.6999 35.576C38.8812 35.2293 39.1265 34.9627 39.4359 34.776C39.7452 34.5893 40.0892 34.496 40.4679 34.496C40.7559 34.496 41.0305 34.56 41.2919 34.688C41.5532 34.8107 41.7612 34.976 41.9159 35.184V33.08H43.0519V39H41.9159V38.344C41.7772 38.5627 41.5825 38.7387 41.3319 38.872C41.0812 39.0053 40.7905 39.072 40.4599 39.072C40.0865 39.072 39.7452 38.976 39.4359 38.784C39.1265 38.592 38.8812 38.3227 38.6999 37.976C38.5239 37.624 38.4359 37.2213 38.4359 36.768ZM41.9239 36.784C41.9239 36.512 41.8705 36.28 41.7639 36.088C41.6572 35.8907 41.5132 35.7413 41.3319 35.64C41.1505 35.5333 40.9559 35.48 40.7479 35.48C40.5399 35.48 40.3479 35.5307 40.1719 35.632C39.9959 35.7333 39.8519 35.8827 39.7399 36.08C39.6332 36.272 39.5799 36.5013 39.5799 36.768C39.5799 37.0347 39.6332 37.2693 39.7399 37.472C39.8519 37.6693 39.9959 37.8213 40.1719 37.928C40.3532 38.0347 40.5452 38.088 40.7479 38.088C40.9559 38.088 41.1505 38.0373 41.3319 37.936C41.5132 37.8293 41.6572 37.68 41.7639 37.488C41.8705 37.2907 41.9239 37.056 41.9239 36.784ZM48.2658 36.688C48.2658 36.848 48.2551 36.992 48.2338 37.12H44.9938C45.0204 37.44 45.1324 37.6907 45.3298 37.872C45.5271 38.0533 45.7698 38.144 46.0578 38.144C46.4738 38.144 46.7698 37.9653 46.9458 37.608H48.1538C48.0258 38.0347 47.7804 38.3867 47.4178 38.664C47.0551 38.936 46.6098 39.072 46.0818 39.072C45.6551 39.072 45.2711 38.9787 44.9298 38.792C44.5938 38.6 44.3298 38.3307 44.1378 37.984C43.9511 37.6373 43.8577 37.2373 43.8577 36.784C43.8577 36.3253 43.9511 35.9227 44.1378 35.576C44.3244 35.2293 44.5858 34.9627 44.9218 34.776C45.2578 34.5893 45.6444 34.496 46.0818 34.496C46.5031 34.496 46.8791 34.5867 47.2098 34.768C47.5458 34.9493 47.8044 35.208 47.9858 35.544C48.1724 35.8747 48.2658 36.256 48.2658 36.688ZM47.1058 36.368C47.1004 36.08 46.9964 35.8507 46.7938 35.68C46.5911 35.504 46.3431 35.416 46.0498 35.416C45.7724 35.416 45.5378 35.5013 45.3458 35.672C45.1591 35.8373 45.0444 36.0693 45.0018 36.368H47.1058ZM48.7952 36.768C48.7952 36.32 48.8832 35.9227 49.0592 35.576C49.2406 35.2293 49.4859 34.9627 49.7953 34.776C50.1046 34.5893 50.4486 34.496 50.8273 34.496C51.1153 34.496 51.3899 34.56 51.6513 34.688C51.9126 34.8107 52.1206 34.976 52.2753 35.184V33.08H53.4113V39H52.2753V38.344C52.1366 38.5627 51.9419 38.7387 51.6913 38.872C51.4406 39.0053 51.1499 39.072 50.8193 39.072C50.4459 39.072 50.1046 38.976 49.7953 38.784C49.4859 38.592 49.2406 38.3227 49.0592 37.976C48.8832 37.624 48.7952 37.2213 48.7952 36.768ZM52.2833 36.784C52.2833 36.512 52.2299 36.28 52.1233 36.088C52.0166 35.8907 51.8726 35.7413 51.6913 35.64C51.5099 35.5333 51.3153 35.48 51.1073 35.48C50.8993 35.48 50.7073 35.5307 50.5312 35.632C50.3553 35.7333 50.2113 35.8827 50.0993 36.08C49.9926 36.272 49.9393 36.5013 49.9393 36.768C49.9393 37.0347 49.9926 37.2693 50.0993 37.472C50.2113 37.6693 50.3553 37.8213 50.5312 37.928C50.7126 38.0347 50.9046 38.088 51.1073 38.088C51.3153 38.088 51.5099 38.0373 51.6913 37.936C51.8726 37.8293 52.0166 37.68 52.1233 37.488C52.2299 37.2907 52.2833 37.056 52.2833 36.784Z" fill="white"/>
</svg>
