<svg width="60" height="47" viewBox="0 0 60 47" fill="none" xmlns="http://www.w3.org/2000/svg">
<path d="M24.3169 1.12474C24.2624 1.07012 24.1977 1.02678 24.1265 0.997205C24.0553 0.967631 23.9789 0.952408 23.9018 0.952408C23.8247 0.952408 23.7484 0.967631 23.6771 0.997205C23.6059 1.02678 23.5412 1.07012 23.4868 1.12474L20.3774 4.21605L19.269 3.13598C19.2146 3.08135 19.1499 3.03801 19.0787 3.00844C19.0075 2.97886 18.9311 2.96364 18.854 2.96364C18.7769 2.96364 18.7005 2.97886 18.6293 3.00844C18.5581 3.03801 18.4934 3.08135 18.4389 3.13598L17.6723 3.90355C17.6177 3.95799 17.5744 4.02267 17.5448 4.09389C17.5152 4.16512 17.5 4.24148 17.5 4.31859C17.5 4.39571 17.5152 4.47207 17.5448 4.54329C17.5744 4.61451 17.6177 4.6792 17.6723 4.73363L19.9961 7.04808C20.1121 7.15834 20.266 7.21982 20.426 7.21982C20.586 7.21982 20.7399 7.15834 20.8559 7.04808L21.6172 6.28539L25.1426 2.76049C25.2524 2.65056 25.3145 2.50175 25.3153 2.34635C25.3161 2.19095 25.2556 2.0415 25.1469 1.93041L24.3169 1.12474ZM24.3169 8.89769C24.2624 8.84307 24.1977 8.79973 24.1265 8.77015C24.0553 8.74058 23.9789 8.72536 23.9018 8.72536C23.8247 8.72536 23.7484 8.74058 23.6771 8.77015C23.6059 8.79973 23.5412 8.84307 23.4868 8.89769L20.3774 12.009L19.269 10.9299C19.2146 10.8753 19.1499 10.832 19.0787 10.8024C19.0075 10.7728 18.9311 10.7576 18.854 10.7576C18.7769 10.7576 18.7005 10.7728 18.6293 10.8024C18.5581 10.832 18.4934 10.8753 18.4389 10.9299L17.6723 11.696C17.6177 11.7505 17.5744 11.8152 17.5448 11.8864C17.5152 11.9576 17.5 12.034 17.5 12.1111C17.5 12.1882 17.5152 12.2646 17.5448 12.3358C17.5744 12.407 17.6177 12.4717 17.6723 12.5261L19.9902 14.8454C20.1061 14.9557 20.2599 15.0171 20.4199 15.0171C20.5798 15.0171 20.7337 14.9557 20.8496 14.8454L21.6162 14.0793L25.1416 10.553C25.251 10.4438 25.3129 10.2958 25.3137 10.1413C25.3145 9.98672 25.2542 9.83809 25.146 9.72777L24.3169 8.89769ZM20.625 17.3601C19.3315 17.3601 18.2524 18.4099 18.2524 19.7038C18.2524 20.9978 19.3325 22.0476 20.625 22.0476C21.2466 22.0476 21.8427 21.8007 22.2823 21.3611C22.7218 20.9216 22.9687 20.3254 22.9687 19.7038C22.9687 19.0822 22.7218 18.4861 22.2823 18.0466C21.8427 17.607 21.2466 17.3601 20.625 17.3601ZM41.7187 18.1413H27.6562C27.449 18.1413 27.2503 18.2237 27.1038 18.3702C26.9573 18.5167 26.875 18.7154 26.875 18.9226V20.4851C26.875 20.6923 26.9573 20.891 27.1038 21.0375C27.2503 21.184 27.449 21.2663 27.6562 21.2663H41.7187C41.9259 21.2663 42.1246 21.184 42.2712 21.0375C42.4177 20.891 42.5 20.6923 42.5 20.4851V18.9226C42.5 18.7154 42.4177 18.5167 42.2712 18.3702C42.1246 18.2237 41.9259 18.1413 41.7187 18.1413ZM41.7187 2.51635H27.6562C27.449 2.51635 27.2503 2.59866 27.1038 2.74517C26.9573 2.89168 26.875 3.0904 26.875 3.2976V4.8601C26.875 5.0673 26.9573 5.26601 27.1038 5.41252C27.2503 5.55904 27.449 5.64135 27.6562 5.64135H41.7187C41.9259 5.64135 42.1246 5.55904 42.2712 5.41252C42.4177 5.26601 42.5 5.0673 42.5 4.8601V3.2976C42.5 3.0904 42.4177 2.89168 42.2712 2.74517C42.1246 2.59866 41.9259 2.51635 41.7187 2.51635ZM41.7187 10.3288H27.6562C27.449 10.3288 27.2503 10.4112 27.1038 10.5577C26.9573 10.7042 26.875 10.9029 26.875 11.1101V12.6726C26.875 12.8798 26.9573 13.0785 27.1038 13.225C27.2503 13.3715 27.449 13.4538 27.6562 13.4538H41.7187C41.9259 13.4538 42.1246 13.3715 42.2712 13.225C42.4177 13.0785 42.5 12.8798 42.5 12.6726V11.1101C42.5 10.9029 42.4177 10.7042 42.2712 10.5577C42.1246 10.4112 41.9259 10.3288 41.7187 10.3288Z" fill="#D2D2D2"/>
<path d="M22.6372 32.4636V33.3676H21.1492V38.0476H20.0292V33.3676H18.5412V32.4636H22.6372ZM23.1663 35.8156C23.1663 35.3676 23.2543 34.9703 23.4303 34.6236C23.6117 34.2769 23.8543 34.0103 24.1583 33.8236C24.4677 33.6369 24.8117 33.5436 25.1903 33.5436C25.521 33.5436 25.809 33.6103 26.0543 33.7436C26.305 33.8769 26.505 34.0449 26.6543 34.2476V33.6156H27.7823V38.0476H26.6543V37.3996C26.5103 37.6076 26.3103 37.7809 26.0543 37.9196C25.8037 38.0529 25.513 38.1196 25.1823 38.1196C24.809 38.1196 24.4677 38.0236 24.1583 37.8316C23.8543 37.6396 23.6117 37.3703 23.4303 37.0236C23.2543 36.6716 23.1663 36.2689 23.1663 35.8156ZM26.6543 35.8316C26.6543 35.5596 26.601 35.3276 26.4943 35.1356C26.3877 34.9383 26.2437 34.7889 26.0623 34.6876C25.881 34.5809 25.6863 34.5276 25.4783 34.5276C25.2703 34.5276 25.0783 34.5783 24.9023 34.6796C24.7263 34.7809 24.5823 34.9303 24.4703 35.1276C24.3637 35.3196 24.3103 35.5489 24.3103 35.8156C24.3103 36.0823 24.3637 36.3169 24.4703 36.5196C24.5823 36.7169 24.7263 36.8689 24.9023 36.9756C25.0837 37.0823 25.2757 37.1356 25.4783 37.1356C25.6863 37.1356 25.881 37.0849 26.0623 36.9836C26.2437 36.8769 26.3877 36.7276 26.4943 36.5356C26.601 36.3383 26.6543 36.1036 26.6543 35.8316ZM30.5722 38.1196C30.2096 38.1196 29.8842 38.0556 29.5962 37.9276C29.3082 37.7943 29.0789 37.6156 28.9082 37.3916C28.7429 37.1676 28.6522 36.9196 28.6362 36.6476H29.7642C29.7856 36.8183 29.8682 36.9596 30.0122 37.0716C30.1616 37.1836 30.3456 37.2396 30.5642 37.2396C30.7776 37.2396 30.9429 37.1969 31.0602 37.1116C31.1829 37.0263 31.2442 36.9169 31.2442 36.7836C31.2442 36.6396 31.1696 36.5329 31.0202 36.4636C30.8762 36.3889 30.6442 36.3089 30.3242 36.2236C29.9936 36.1436 29.7216 36.0609 29.5082 35.9756C29.3002 35.8903 29.1189 35.7596 28.9642 35.5836C28.8149 35.4076 28.7402 35.1703 28.7402 34.8716C28.7402 34.6263 28.8096 34.4023 28.9482 34.1996C29.0922 33.9969 29.2949 33.8369 29.5562 33.7196C29.8229 33.6023 30.1349 33.5436 30.4922 33.5436C31.0202 33.5436 31.4416 33.6769 31.7562 33.9436C32.0709 34.2049 32.2442 34.5596 32.2762 35.0076H31.2042C31.1882 34.8316 31.1136 34.6929 30.9802 34.5916C30.8522 34.4849 30.6789 34.4316 30.4602 34.4316C30.2576 34.4316 30.1002 34.4689 29.9882 34.5436C29.8816 34.6183 29.8282 34.7223 29.8282 34.8556C29.8282 35.0049 29.9029 35.1196 30.0522 35.1996C30.2016 35.2743 30.4336 35.3516 30.7482 35.4316C31.0682 35.5116 31.3322 35.5943 31.5402 35.6796C31.7482 35.7649 31.9269 35.8983 32.0762 36.0796C32.2309 36.2556 32.3109 36.4903 32.3162 36.7836C32.3162 37.0396 32.2442 37.2689 32.1002 37.4716C31.9616 37.6743 31.7589 37.8343 31.4922 37.9516C31.2309 38.0636 30.9242 38.1196 30.5722 38.1196ZM35.8596 38.0476L34.3556 36.1596V38.0476H33.2356V32.1276H34.3556V35.4956L35.8436 33.6156H37.2996L35.3476 35.8396L37.3156 38.0476H35.8596ZM39.6035 38.1196C39.2408 38.1196 38.9155 38.0556 38.6275 37.9276C38.3395 37.7943 38.1101 37.6156 37.9395 37.3916C37.7741 37.1676 37.6835 36.9196 37.6675 36.6476H38.7955C38.8168 36.8183 38.8995 36.9596 39.0435 37.0716C39.1928 37.1836 39.3768 37.2396 39.5955 37.2396C39.8088 37.2396 39.9741 37.1969 40.0915 37.1116C40.2141 37.0263 40.2755 36.9169 40.2755 36.7836C40.2755 36.6396 40.2008 36.5329 40.0515 36.4636C39.9075 36.3889 39.6755 36.3089 39.3555 36.2236C39.0248 36.1436 38.7528 36.0609 38.5395 35.9756C38.3315 35.8903 38.1501 35.7596 37.9955 35.5836C37.8461 35.4076 37.7715 35.1703 37.7715 34.8716C37.7715 34.6263 37.8408 34.4023 37.9795 34.1996C38.1235 33.9969 38.3261 33.8369 38.5875 33.7196C38.8541 33.6023 39.1661 33.5436 39.5235 33.5436C40.0515 33.5436 40.4728 33.6769 40.7875 33.9436C41.1021 34.2049 41.2755 34.5596 41.3075 35.0076H40.2355C40.2195 34.8316 40.1448 34.6929 40.0115 34.5916C39.8835 34.4849 39.7101 34.4316 39.4915 34.4316C39.2888 34.4316 39.1315 34.4689 39.0195 34.5436C38.9128 34.6183 38.8595 34.7223 38.8595 34.8556C38.8595 35.0049 38.9341 35.1196 39.0835 35.1996C39.2328 35.2743 39.4648 35.3516 39.7795 35.4316C40.0995 35.5116 40.3635 35.5943 40.5715 35.6796C40.7795 35.7649 40.9581 35.8983 41.1075 36.0796C41.2621 36.2556 41.3421 36.4903 41.3475 36.7836C41.3475 37.0396 41.2755 37.2689 41.1315 37.4716C40.9928 37.6743 40.7901 37.8343 40.5235 37.9516C40.2621 38.0636 39.9555 38.1196 39.6035 38.1196Z" fill="white"/>
</svg>
